<?xml version="1.0" encoding="UTF-8"?>
<svg id="Layer_1" data-name="Layer 1" xmlns="http://www.w3.org/2000/svg" xmlns:xlink="http://www.w3.org/1999/xlink" viewBox="0 0 2827.8329703887 1116.739912474">
  <defs>
    <style>
      .cls-1 {
        fill: #0f1246;
      }

      .cls-2 {
        fill: #66b7f3;
      }

      .cls-3 {
        fill: #79878e;
      }

      .cls-4 {
        fill: #f08525;
      }

      .cls-5 {
        fill: #f33175;
      }

      .cls-6 {
        fill: url(#linear-gradient-2);
      }

      .cls-7 {
        fill: #e6efe2;
      }

      .cls-8 {
        fill: #f08b23;
      }

      .cls-9 {
        fill: #464e7d;
      }

      .cls-10 {
        fill: #598db5;
      }

      .cls-11 {
        fill: #f08423;
      }

      .cls-12 {
        fill: #fde503;
      }

      .cls-13 {
        fill: #d6dbd4;
      }

      .cls-14 {
        fill: #5186ed;
      }

      .cls-15 {
        fill: none;
      }

      .cls-16 {
        fill: url(#linear-gradient-4);
      }

      .cls-17 {
        fill: #a9cfc2;
      }

      .cls-18 {
        fill: #fedc01;
      }

      .cls-19 {
        fill: url(#linear-gradient-3);
      }

      .cls-20 {
        fill: url(#linear-gradient-5);
      }

      .cls-21 {
        fill: #fedc00;
      }

      .cls-22 {
        fill: #14f7e6;
      }

      .cls-23 {
        fill: #f9ebd3;
      }

      .cls-24 {
        fill: #77868d;
      }

      .cls-25 {
        fill: #f08722;
      }

      .cls-26 {
        fill: #f2f1f1;
      }

      .cls-27 {
        fill: #f18b20;
      }

      .cls-28 {
        fill: #fde405;
      }

      .cls-29 {
        fill: #fde505;
      }

      .cls-30 {
        fill: #f08626;
      }

      .cls-31 {
        fill: url(#linear-gradient);
      }
    </style>
    <linearGradient id="linear-gradient" x1="1221.6291121982" y1="266.9805406471" x2="807.2186348916" y2="505.1988662919" gradientTransform="translate(-221.2276999492 -308.9185042297) scale(2.5590657908)" gradientUnits="userSpaceOnUse">
      <stop offset="0" stop-color="#c3dfc7"/>
      <stop offset=".8974895477" stop-color="#8fcbd0"/>
    </linearGradient>
    <linearGradient id="linear-gradient-2" x1="1198.0435680746" y1="337.9155307336" x2="946.761456842" y2="544.0279492737" gradientTransform="translate(-221.2276999492 -308.9185042297) scale(2.5590657908)" gradientUnits="userSpaceOnUse">
      <stop offset="0" stop-color="#c4e0c6"/>
      <stop offset="1" stop-color="#9bccc8"/>
    </linearGradient>
    <linearGradient id="linear-gradient-3" x1="65.3087820591" y1="293.6153003971" x2="361.4566112793" y2="565.461733687" gradientTransform="translate(-221.2276999492 -308.9185042297) scale(2.5590657908)" gradientUnits="userSpaceOnUse">
      <stop offset="0" stop-color="#fce0b8"/>
      <stop offset="1" stop-color="#ebb8b3"/>
    </linearGradient>
    <linearGradient id="linear-gradient-4" x1="81.7473157433" y1="205.8394980562" x2="444.5701316967" y2="546.9606517649" gradientTransform="translate(-221.2276999492 -308.9185042297) scale(2.5590657908)" gradientUnits="userSpaceOnUse">
      <stop offset="0" stop-color="#fce0b9"/>
      <stop offset=".9257028198" stop-color="#f0b8b7"/>
    </linearGradient>
    <linearGradient id="linear-gradient-5" x1="61.6889743415" y1="436.1317912605" x2="199.0524812806" y2="580.1188548533" gradientTransform="translate(-221.2276999492 -308.9185042297) scale(2.5590657908)" gradientUnits="userSpaceOnUse">
      <stop offset="0" stop-color="#fce1b8"/>
      <stop offset="1" stop-color="#efccb3"/>
    </linearGradient>
  </defs>
  <g id="Generative_Object" data-name="Generative Object">
    <path class="cls-26" d="M2386.9665526843,5.4983808871l-1092.7210926911,1094.0006255865-3.8385986863,11.5157960588,152.2644145553-5.1181315817-2.5590657908,7.6771973725c-148.3559321346,1.1199604468-297.1188874366,6.2546627077-445.2774476071,0L1.9172356162,123.215407266c.0156311766-.6596542907-6.7779200836-6.9379624768,5.1181315817-7.6771973725l994.1970597435,995.4765926389,152.2644145553-1.2795328954L55.657617224,5.4983808871C832.6029001021-.4503277136,1610.2724459004-3.0967915689,2386.9665526843,5.4983808871Z"/>
    <path class="cls-23" d="M55.657617224,5.4983808871l1097.8392242728,1104.2368887499-152.2644145553,1.2795328954L7.0353671979,115.5382098934,4.4763014071,11.8960453642C8.5446721227,3.2066419483,46.1396732152,5.8924300112,55.657617224,5.4983808871Z"/>
    <g>
      <path class="cls-31" d="M2822.0077371281,427.7442363766l-683.2705661558,683.2705661558c-93.9385411715.063901976-195.5371964883,7.9299198104-293.0130330518,5.1181315817-4.670418014-.1347228899-12.6348130303,2.5630315239-11.5157960588-5.1181315817L2822.0077371281,125.7744730568c3.0718374213,94.4460077373-.4565600462,204.7940632086,0,301.9697633198Z"/>
      <path class="cls-6" d="M2822.0077371281,632.4694996442l-478.5453028881,478.5453028881c-62.9142197969.2024712547-143.1467018311-.0361432007-202.1661974768,0l680.7115003649-680.7115003649c.2876869327,62.3771873508.0526698259,138.6327288815,0,202.1661974768Z"/>
      <path class="cls-17" d="M2348.5805658216,1111.0148025324l473.4271713064-473.4271713064c-.0002219224.2637823745,5.119907317-.7993651408,5.1181315817,1.2795328954-.1358381724,159.0291694259,3.2949107599,318.3923684529-3.8385986863,477.2657699927-156.8587573782-3.1457802318-313.9191080409-.5340545728-470.8681055156,0-1.8307289091.0062294705-3.5187171945-5.1191856969-3.8385986863-5.1181315817Z"/>
      <path class="cls-26" d="M2822.0077371281,430.3033021674l-680.7115003649,680.7115003649c-.8530215883.0005223855-1.7060442452-.0005802705-2.5590657908,0l683.2705661558-683.2705661558c.0040076603.8530032386-.0039340985,1.7060621618,0,2.5590657908Z"/>
      <path class="cls-26" d="M2822.0077371281,637.5876312259l-473.4271713064,473.4271713064c-1.6862010038.0055565896-3.4319299998-.005426553-5.1181315817,0l478.5453028881-478.5453028881c-.0013978901,1.6862180201.0014186297,3.4319135853,0,5.1181315817Z"/>
    </g>
    <g>
      <path class="cls-19" d="M7.0353671979,297.2318810435l813.7829214889,813.7829214889c-114.0725959214.1124313929-246.0279443782.5749975746-365.9464080909,0L7.0353671979,660.6192233435c-.0001408353-.3198831976-5.1173066967-1.9937607831-5.1181315817-3.8385986863-.0537792018-120.2760528485.040181188-240.5522088534,0-360.8282765092l5.1181315817,1.2795328954Z"/>
      <path class="cls-16" d="M994.8347624643,1113.5738683232l-171.4574079867-2.5590657908L7.0353671979,292.1137494618c.0000276408-2.965176332-5.1178912634-5.334302077-5.1181315817-6.3976644771-.0122195943-54.0693717758-1.2795969212-108.5001617889,0-162.5006777187l992.9175268481,990.3584610572Z"/>
      <path class="cls-20" d="M7.0353671979,665.7373549252l445.2774476071,445.2774476071c-.6300894391-.0030634803-10.6728743731,5.1224343374-11.5157960588,5.1181315817-146.283661203-.7467156965-292.5908239893-3.0124789012-438.87978313-3.8385986863-.0473545241-148.4257884991.0633343923-296.8516750601,0-445.2774476071-.000887176-2.0791196403,5.1182459721-1.0157504523,5.1181315817-1.2795328954Z"/>
      <path class="cls-26" d="M823.3773544776,1111.0148025324c-.8530213055.0006339128-1.7060446892-.0008407484-2.5590657908,0L7.0353671979,297.2318810435v-5.1181315817l816.3419872797,818.9010530706Z"/>
      <path class="cls-26" d="M454.8718805959,1111.0148025324c-.8530021942-.004090064-1.7060639117.0041472754-2.5590657908,0L7.0353671979,665.7373549252c-.0007301222-1.683650229.0007412626-3.4344813593,0-5.1181315817l447.836513398,450.3955791888Z"/>
    </g>
    <g>
      <path class="cls-26" d="M2543.0695659259,5.4983808871l-1100.3982900636,1100.3982900636-152.2644145553,5.1181315817,3.8385986863-11.5157960588L2386.9665526843,5.4983808871c51.9843840033.5752776307,104.1190872796-.5920227257,156.1030132416,0Z"/>
      <path class="cls-26" d="M2822.0077371281,61.7978282857l-1045.3783755604,1044.098842665c-7.730764655-5.1890580413,9.8199619162-17.8802194339,8.956730268-19.1929934313-1.4520343872-2.2082056315-8.2666115317-.2797774-12.7953289542-3.8385986863-10.2732355587-8.0730604217-8.1047315845-12.5064010923-8.956730268-12.7953289542-5.2903306382-1.7940449323-16.2001186526,28.5454079592-21.7520592222,2.5590657908,348.0245051998-325.3134943976,664.7310037972-687.3537898668,1009.5514544886-1015.9491189657,9.9754507919-9.5060676631,22.5136297529-22.6962169914,33.267855281-30.7087894901,1.3820974499-1.0297492821,22.35733919.4818806483,24.311125013-17.9134605359,4.0568078792,1.2327896767,8.8219316412-2.4167645703,12.7953289542,3.8385986863,5.5329588206,16.7290145302-.2812487879,33.5266348457,0,49.9017829215Z"/>
      <path class="cls-26" d="M2822.0077371281,61.7978282857c.3651684365,21.2612017455-.6908717027,42.7352620982,0,63.9766447711l-987.7993952664,985.2403294755c-39.0625257498,4.6846292465-78.5104958771,1.9303247376-117.7170263789,2.5590657908l16.6339276405-12.7953289542c-1.2357949056,29.279144492,29.4290573789-11.4800404352,39.6655197581-17.9134605359,4.5287174225,3.5588212862,11.343294567,1.6303930548,12.7953289542,3.8385986863.8632316482,1.3127739974-16.687494923,14.0039353901-8.956730268,19.1929934313L2822.0077371281,61.7978282857Z"/>
      <path class="cls-26" d="M2763.1492239386,5.4983808871c-350.4818471027,362.8060909457-710.7357887224,716.7320344103-1068.409967678,1072.2485663643l-8.956730268-3.8385986863L2726.0427699713,25.9709072138l-1053.055572933,1050.4965071421,15.3543947451,2.5590657908c4.1024624797,5.2114670067-31.0703340691,29.2234408847-12.7953289542,34.5473881764-9.355261522.1028534831-18.7943626031-.0991172637-28.1497236993,0,6.102225381-16.0706889827-12.1864480861,1.9504128214-19.1929934313-2.5590657908l8.956730268-16.6339276405c-.2216077333-.8016289073-13.9290388628-6.2880317009-15.3543947451-6.3976644771l11.5157960588-12.7953289542c-6.1339907504,31.4144393929,15.083177072,7.8114033185,26.8701908039-2.5590657908l6.3976644771,15.3543947451c6.1041703453-7.8604435035.1860858819-6.8598075024-3.8385986863-14.0748618497L2719.6451054942,22.1323085276c-.086458103-3.4953042887-11.027766453.9673566278-11.5157960588,1.2795328954-7.0931200828,4.537232428-21.352240726,19.0403535976-28.1497236993,25.5906579085-333.8284689661,321.6893764862-650.8097264463,662.4790548277-983.9607965801,985.2403294755l-12.7953289542-3.8385986863,97.2445000521-87.0082368887-7.6771973725-5.1181315817c45.0070463807-35.3660697794,85.1582508782-76.7993264914,125.3942237514-117.7170263789,2.0153126254-2.0494585143-5.1133416936-5.0372532688-1.2795328954-8.956730268,21.1664480107-21.6394219165,58.6209954192-40.4781570459,78.0515066208-65.2561776666,1.7906298125-2.2834325849-4.2734826216-5.2851326187-2.5590657908-7.6771973725.9273419896-1.2938872555,15.364079718-19.204511495,16.6339276405-19.1929934313,4.1660849863.0377881722-4.4542583148,8.7870840345,2.5590657908,7.6771973725,1.968049463-.3114517191,26.2082568812-23.3831181943,29.4292565947-26.8701908039.7003758649-.7582308948.1408239475-13.4241039707,5.1181315817-17.9134605359,6.7381579265-6.0775816462,13.2834709364-3.0560863464,14.0748618497-3.8385986863,8.9766614436-8.8759527477,69.4119394053-65.4920390761,70.3743092483-70.3743092483,1.3576580167-6.8876360653-2.5632091055-6.0531646111-2.5590657908-6.3976644771,36.1403396342-34.0523085619,74.2005038558-66.4569267526,110.0398290064-101.0830987384,1.9257135715-1.8605285965-4.4848776906-5.8168159755-2.5590657908-7.6771973725,27.2407106032-26.3151927014,63.4781150226-51.2465593831,90.846835575-78.0515066208,126.154832154-123.5561455345,245.0902721012-254.9337073245,374.9031383589-374.9031383589-.0979240392-10.7514155134-27.0503766958,14.4193960396-29.4292565947,16.6339276405-113.026216453,105.217639689-219.8270338848,231.0092544113-332.6785528099,337.7966843916-9.5188158566-10.2049237821-39.4110026447,36.3598698443-47.3427171306,24.311125013,2.4925702226-4.0899324321,60.3781515552-54.6140736363,49.9017829215-57.578980294l-634.6483161297,642.3255135022c-10.3510322752,5.4829325117-7.259207616-.5366300891-14.0748618497-6.3976644771,311.8507155515-303.9794060742,613.7116326372-618.3961356376,927.6613491815-919.984151809,6.2468038531-2.5647512733,7.2878028464,5.3655350686,7.6771973725,5.1181315817,16.5652544537-10.5248056644,38.5306828053-42.7313469706,56.2994473986-56.2994473986,7.6631228394-5.8515053048,22.6065619501-6.0244144701,26.8701908039-17.9134605359,1.6923909399.0231010805,3.4257699676-.0239188918,5.1181315817,0l-11.5157960588,28.1497236993,26.8701908039-28.1497236993c17.1374896878.2136644494,33.7177515123-2.8132167842,51.1813158169-2.5590657908Z"/>
      <path class="cls-26" d="M2520.0379738083,69.4750256582c-302.2648295557,310.6896185829-613.9681761517,611.827220727-918.7046189136,919.984151809-9.1326720061,9.2351809073-91.9870216488,86.1749917363-89.5673026796,92.1263684704.5737184505,1.4110790062,10.6054210482,2.3033282342,12.7953289542,5.1181315817-3.1659552685,4.8103627848-6.5117716959,9.7249230722-10.2362631634,14.0748618497-4.1539587261,4.8515257184-12.2230885228,6.7442358404-15.3543947451,12.7953289542-.8529526454.0077126214-1.7061118647-.0075873938-2.5590657908,0-14.8682379875-9.0857730479,13.4697719061-27.7593078307,12.7953289542-29.4292565947-1.9552390922-4.8412532097-10.7171108501,3.6463547431-12.7953289542,0-3.4005676055-5.966493985,9.2065727392-14.9873997144,0-23.0315921176L2516.199375122,41.3253019589l1.2795328954,11.5157960588c-302.1883984582,308.1855654181-611.8360878574,608.1674202842-916.1455531227,913.5864873319-32.5077195432,32.6262522464-63.1646331384,68.6784281856-94.6854342613,102.3626316338L2511.0812435403,66.9159598674l8.956730268,2.5590657908Z"/>
      <path class="cls-26" d="M2809.2124081738,8.0574466779c-1.953785823,18.3953411843-22.9290275631,16.8837112538-24.311125013,17.9134605359-10.7542255281,8.0125724987-23.2924044891,21.2027218271-33.267855281,30.7087894901-344.8204506914,328.5953290989-661.5269492888,690.6356245681-1009.5514544886,1015.9491189657-20.6288730738,19.282696146-83.9614008395,75.09014597-30.7087894901,8.956730268,1.1684576698-6.1458361479-7.076622132-2.4883103662-7.6771973725-5.1181315817-1.4403060941-6.3068659298,81.2278730366-79.8006933357,92.1263684704-90.846835575l8.956730268,2.5590657908L2759.3106252523,31.0890387955c6.5656920127,11.4791019972,17.4997570936-9.1836140412,24.311125013-15.3543947451,3.521744145-3.1905354506,8.4949216917-5.6178443958,12.7953289542-7.6771973725,3.8765351506.5722897803,9.7080378537-.9381712694,12.7953289542,0Z"/>
      <path class="cls-7" d="M2578.8964869977,5.4983808871c-18.0238051389,18.6110284201-20.4957486513.3672810552-29.4292565947,2.5590657908-3.4421632836.844514942-21.4641040806,23.4059728726-26.8701908039,26.8701908039-1.208117618,22.0559345782,12.7364784048-8.9650516175,20.4725263268,0-7.722332616,11.6048998405-33.1941175587,23.0089128627-23.0315921176,34.5473881764l-8.956730268-2.5590657908-1004.4333229069,1001.874257116c31.5208011229-33.6842034482,62.1777147181-69.7363793874,94.6854342613-102.3626316338,304.3094652653-305.4190670476,613.9571546645-605.4009219138,916.1455531227-913.5864873319l-1.2795328954-11.5157960588-1019.787717652,1019.787717652c9.2065727392,8.0441924032-3.4005676055,17.0650981326,0,23.0315921176,2.0782181041,3.6463547431,10.8400898621-4.8412532097,12.7953289542,0,.6744429518,1.669948764-27.6635669418,20.3434835468-12.7953289542,29.4292565947-18.7339523559.1666466022-37.5649872413-.1414291567-56.2994473986,0l2.5590657908-7.6771973725L2543.0695659259,5.4983808871c11.9083258992.1356188365,23.9185181536-.1328417788,35.8269210718,0Z"/>
      <path class="cls-7" d="M2796.4170792196,8.0574466779c-4.3004072625,2.0593529768-9.2735848093,4.486661922-12.7953289542,7.6771973725-8.5248767462,1.3351858082-1.7523086713-7.0299876411-8.956730268-7.6771973725-3.249097335-.2918828924-42.7263772292,37.8834588924-48.6222500261,43.5041184444-314.3626278665,299.6885055017-624.4508794984,624.1470811516-930.2204149724,934.0590136586-10.8984954338,11.0461422394-93.5666745645,84.5399696452-92.1263684704,90.846835575.6005752405,2.6298212155,8.8456550424-1.0277045662,7.6771973725,5.1181315817-53.2526113493,66.1334157021,10.0799164163,10.325965878,30.7087894901-8.956730268,5.5519405696,25.9863421684,16.461728584-4.3531107231,21.7520592222-2.5590657908.8519986834.2889278619-1.3165052908,4.7222685325,8.956730268,12.7953289542-10.2364623792,6.4334201007-40.9013146637,47.1926050279-39.6655197581,17.9134605359l-16.6339276405,12.7953289542c-13.6133707303.2183127388-27.3294033098-.1496929782-40.9450526535,0-18.2750051149-5.3239472917,16.8977914339-29.3359211697,12.7953289542-34.5473881764l-15.3543947451-2.5590657908L2726.0427699713,25.9709072138l-1040.2602439787,1047.9374413513,8.956730268,3.8385986863C2052.4134352162,722.2304152974,2412.667376836,368.3044718328,2763.1492239386,5.4983808871c11.9836396323.1744004754,21.3826960839.8044692551,33.267855281,2.5590657908Z"/>
      <path class="cls-13" d="M1621.8058812215,1087.9832104147c1.4253558823.1096327762,15.1327870117,5.5960355698,15.3543947451,6.3976644771l-8.956730268,16.6339276405c7.0065453453,4.5094786122,25.2952188124-13.5116231919,19.1929934313,2.5590657908-49.4318490024.5237157134-98.9921313295-.4469923341-148.425815869,0,3.1313062223-6.0510931138,11.2004360189-7.9438032358,15.3543947451-12.7953289542-5.8531465349,32.1981484556,42.2984036466-28.6508441036,48.6222500261-33.267855281,6.6823754666-4.8787716161,11.5830563327-7.546240264,20.4725263268-3.8385986863l-20.4725263268,25.5906579085c11.3928329527,10.6283607451,24.1329276166-10.6565516655,19.1929934313,8.956730268l17.9134605359-12.7953289542-2.5590657908,10.2362631634c4.1320290565.8020167147,23.0401534197-7.7749555156,24.311125013-7.6771973725Z"/>
      <path class="cls-26" d="M2584.0146185794,5.4983808871l-2.5590657908,10.2362631634c-7.5726472044,6.5879140605-17.7070935167,17.8729314366-25.5906579085,25.5906579085-11.7558744293,1.766259235-27.6619746864,19.7572022076-35.8269210718,28.1497236993-10.1625254411-11.5384753137,15.3092595016-22.9424883359,23.0315921176-34.5473881764-7.736047922-8.9650516175-21.6806439447,22.0559345782-20.4725263268,0,5.4060867233-3.4642179313,23.4280275203-26.0256758619,26.8701908039-26.8701908039,8.9335079434-2.1917847357,11.4054514558,16.0519626293,29.4292565947-2.5590657908,1.6925787967.0188812202,3.4255512966-.018829453,5.1181315817,0Z"/>
      <path class="cls-26" d="M2711.9679081217,8.0574466779l-26.8701908039,28.1497236993,11.5157960588-28.1497236993c5.0921751041.0719699527,10.2619377-.0634910393,15.3543947451,0Z"/>
      <path class="cls-7" d="M1660.1918680842,1072.6288156697c11.9310584743-10.497202783,24.1216716773-27.0457825129,35.8269210718-38.3859868627,333.1510701338-322.7612746478,650.132327614-663.5509529894,983.9607965801-985.2403294755,6.7974829733-6.5503043108,21.0566036165-21.0534254804,28.1497236993-25.5906579085.4880296058-.3121762676,11.4293379558-4.7748371842,11.5157960588-1.2795328954l-1056.8941716192,1051.7760400375c4.0246845682,7.2150543472,9.9427690316,6.2144183462,3.8385986863,14.0748618497l-6.3976644771-15.3543947451Z"/>
      <g>
        <path class="cls-26" d="M2691.4953817949,8.0574466779c-4.2636288537,11.8890460658-19.2070679645,12.0619552311-26.8701908039,17.9134605359-17.7687645933,13.568100428-39.7341929449,45.7746417342-56.2994473986,56.2994473986-.3893945261.2474034869-1.4303935194-7.682882855-7.6771973725-5.1181315817-313.9497165443,301.5880161714-615.81063363,616.0047457348-927.6613491815,919.984151809,6.8156542336,5.861034388,3.7238295744,11.8805969888,14.0748618497,6.3976644771l634.6483161297-642.3255135022c10.4763686337,2.9649066577-47.4092126989,53.4890478619-49.9017829215,57.578980294,7.9317144859,12.0487448313,37.823901274-34.5160487951,47.3427171306-24.311125013,112.8515189252-106.7874299803,219.652336357-232.5790447026,332.6785528099-337.7966843916,2.3788798989-2.2145316009,29.3313325555-27.3853431539,29.4292565947-16.6339276405-129.8128662577,119.9694310344-248.7483062049,251.3469928243-374.9031383589,374.9031383589-27.3687205524,26.8049472377-63.6061249718,51.7363139194-90.846835575,78.0515066208-1.9258118997,1.860381397,4.4847793624,5.816668776,2.5590657908,7.6771973725-35.8393251506,34.6261719858-73.8994893721,67.0307901765-110.0398290064,101.0830987384.0031722936-.2637633919-4.9260143747.8476950416-5.1181315817-1.2795328954-.1546245048-1.7120880081,21.0747167019-21.5044406467,24.311125013-24.311125013,1.0510986959-.9115358736,6.6404879433.9113881747,7.6771973725,0,24.3797478514-21.4326341294,50.258600617-47.0751948851,72.9333750391-70.3743092483.3589557341-.3688394224,4.2630561887-7.903236179-1.2795328954-6.3976644771-7.5204070863,6.2526330864-13.4056422459,13.4809663271-23.0315921176,7.6771973725l-101.0830987384,98.5240329476c15.8134936287,4.7348575538-1.367115668,18.2912011592-11.5157960588,11.5157960588-18.1357984499,34.9896185569-228.9716495439,215.309536211-229.0363882807,231.5954540715-.0203885438,5.1290180546,4.1503790955,4.5825126116,7.6771973725,3.8385986863-18.0068557943,4.0182387048-33.1393836365,20.3300857554-49.9017829215,35.8269210718-22.6792862626,20.9669963309-42.5943163504,50.7541515292-67.8152434574,70.3743092483-.8398574778,5.4926459654,3.2084474809,3.0433088077,5.1181315817,3.8385986863-13.6854325859,12.2426738973-27.6783604163,24.5166540464-38.3859868627,34.5473881764-7.349266046,6.884675528-45.5320287271,39.3856139784-47.3427171306,44.7836513398-1.6209809338,4.8324800806-1.0090474561,4.537383036,2.5590657908,7.6771973725l95.9649671567-85.7287039933c-1.9270644179-3.0942648404-9.9591187708-.098390291-12.7953289542-1.2795328954,37.6642255342-33.6935517323,51.0147206758-41.7909932209,81.8901053071-80.6105724116,13.5180257495-16.9961954273,9.2811973601-1.3882437509,11.5157960588-1.2795328954,2.0785045566.1011170411,24.1831872509-26.6937718958,29.4292565947-29.4292565947-.4335149699-2.3939552723-8.5780215092.9094954567-10.2362631634,1.2795328954,14.120393007-2.9784230895,177.2242049662-179.6144496715,203.4457303722-204.7252632676.2922346556-.2798559523,4.9932360403,5.1303109369,7.6771973725,2.5590657908,16.3125471832-15.6274821324,30.8501705977-33.0825708422,47.3427171306-48.6222500261-.0041433147.344499866,3.9167238075-.4899715882,2.5590657908,6.3976644771-.962369843,4.8822701722-61.3976478047,61.4983565005-70.3743092483,70.3743092483-.7913909132.7825123399-7.3367039231-2.23898296-14.0748618497,3.8385986863-4.9773076342,4.4893565652-4.4177557168,17.1552296411-5.1181315817,17.9134605359-3.2209997135,3.4870726096-27.4612071317,26.5587390848-29.4292565947,26.8701908039-7.0133241056,1.1098866619,1.6070191955-7.6394092003-2.5590657908-7.6771973725-1.2698479225-.0115180636-15.7065856509,17.8991061759-16.6339276405,19.1929934313-1.7144168308,2.3920647538,4.3496956034,5.3937647876,2.5590657908,7.6771973725-19.4305112016,24.7780206207-56.8850586101,43.6167557501-78.0515066208,65.2561776666-3.8338087982,3.9194769991,3.2948455208,6.9072717537,1.2795328954,8.956730268-40.2359728732,40.9176998875-80.3871773707,82.3509565995-125.3942237514,117.7170263789l7.6771973725,5.1181315817-97.2445000521,87.0082368887,12.7953289542,3.8385986863c-11.7052493945,11.3402043497-23.8958625975,27.8887840796-35.8269210718,38.3859868627-11.7870137318,10.3704691093-33.0041815543,33.9735051838-26.8701908039,2.5590657908l-11.5157960588,12.7953289542c-1.2709715934-.0977581431-20.1790959565,8.4792140873-24.311125013,7.6771973725l2.5590657908-10.2362631634-17.9134605359,12.7953289542c4.9399341853-19.6132819334-7.8001604787,1.6716304771-19.1929934313-8.956730268l20.4725263268-25.5906579085c-8.8894699941-3.7076415777-13.7901508602-1.0401729298-20.4725263268,3.8385986863-21.7352733354-14.6619526787-25.9348161187,28.8756977913-43.5041184444,11.5157960588,349.4356796332-341.7661048004,687.1975650302-695.8233428717,1036.4216452925-1037.7011781879,7.8835643918-7.7177264718,18.0180107041-19.0027438479,25.5906579085-25.5906579085,1.561515928-1.3584592627,12.1847430686-3.718424537,12.7953289542-10.2362631634,32.4990688305.3547103202,64.7779272816,2.115898143,97.2445000521,2.5590657908Z"/>
        <g>
          <path class="cls-7" d="M2594.2508817428,5.4983808871c-.6105858856,6.5178386264-11.2338130262,8.8778039007-12.7953289542,10.2362631634l2.5590657908-10.2362631634c3.3911035584.0377250201,6.8451397341-.0370123367,10.2362631634,0Z"/>
          <path class="cls-26" d="M2531.5537698671,84.8294204033c3.1248384002-.6475634205,11.7037808951,1.6826775788,11.5157960588,6.3976644771l-263.5837764571,258.4656448754,24.311125013-19.1929934313,3.8385986863,6.3976644771-607.7781253258,607.7781253258,574.5102700448-579.6284016265-212.4024606402,191.9299343134,469.5885726202-472.147638411Z"/>
          <path class="cls-7" d="M2555.8648948801,41.3253019589c-349.2240802623,341.8778353161-686.9859656592,695.9350733875-1036.4216452925,1037.7011781879,17.5693023257,17.3599017325,21.768845109-26.1777487375,43.5041184444-11.5157960588-6.3238463794,4.6170111774-54.475396561,65.4660037366-48.6222500261,33.267855281,3.7244914675-4.3499387775,7.0703078949-9.2644990649,10.2362631634-14.0748618497-2.189907906-2.8148033475-12.2216105037-3.7070525755-12.7953289542-5.1181315817-2.4197189692-5.9513767342,80.4346306735-82.8911875631,89.5673026796-92.1263684704,304.7364427619-308.156931082,616.4397893578-609.2945332261,918.7046189136-919.984151809,8.1649463854-8.3925214917,24.0710466425-26.3834644643,35.8269210718-28.1497236993Z"/>
          <path class="cls-26" d="M2108.0283814821,601.7607101541c-16.492546533,15.5396791839-31.0301699474,32.9947678937-47.3427171306,48.6222500261-2.6839613323,2.571245146-7.384962717-2.8389217431-7.6771973725-2.5590657908-26.221525406,25.1108135961-189.3253373652,201.7468401781-203.4457303722,204.7252632676-3.5268182771.7439139253-7.6975859163,1.2904193684-7.6771973725-3.8385986863.0647387368-16.2859178605,210.9005898308-196.6058355146,229.0363882807-231.5954540715,10.1486803908,6.7754051003,27.3292896875-6.780938505,11.5157960588-11.5157960588l101.0830987384-98.5240329476c9.6259498717,5.8037689546,15.5111850313-1.4245642861,23.0315921176-7.6771973725,5.5425890841-1.5055717019,1.6384886295,6.0288250547,1.2795328954,6.3976644771-22.6747744221,23.2991143631-48.5536271877,48.9416751189-72.9333750391,70.3743092483-1.0367094292.9113881747-6.6260986766-.9115358736-7.6771973725,0-3.2364083111,2.8066843663-24.4657495178,22.5990370049-24.311125013,24.311125013.192117207,2.127227937,5.1213038753,1.0157695035,5.1181315817,1.2795328954Z"/>
          <path class="cls-26" d="M1736.9638418095,962.5889866633c-1.9096841008-.7952898786-5.9579890595,1.6540472792-5.1181315817-3.8385986863,25.220927107-19.620157719,45.1359571948-49.4073129174,67.8152434574-70.3743092483,16.762399285-15.4968353164,31.8949271272-31.8086823671,49.9017829215-35.8269210718,1.6582416542-.3700374387,9.8027481935-3.6734881677,10.2362631634-1.2795328954-5.2460693438,2.735484699-27.3507520382,29.5303736358-29.4292565947,29.4292565947-2.2345986987-.1087108555,2.0022296907-15.7166625319-11.5157960588,1.2795328954-30.8753846312,38.8195791907-44.2258797729,46.9170206794-81.8901053071,80.6105724116Z"/>
          <path class="cls-26" d="M1736.9638418095,962.5889866633c2.8362101834,1.1811426044,10.8682645363-1.814731945,12.7953289542,1.2795328954l-95.9649671567,85.7287039933c-3.568113247-3.1398143365-4.1800467246-2.8447172919-2.5590657908-7.6771973725,1.8106884036-5.3980373614,39.9934510846-37.8989758118,47.3427171306-44.7836513398,10.7076264464-10.03073413,24.7005542768-22.3047142791,38.3859868627-34.5473881764Z"/>
          <path class="cls-26" d="M2280.7653223642,422.6261047949c12.4421964622-.9642685325-25.7583857989,33.7089781255-28.1497236993,35.8269210718-2.0370199675,1.8041331888-4.9043302584-2.7491952682-5.1181315817-2.5590657908-4.6517232908,4.1366896351-49.4533248521,54.4175572943-55.0199145032,44.7836513398,29.3748035869-25.3179146117,52.3586273738-67.1687192538,88.2877697842-78.0515066208Z"/>
        </g>
      </g>
      <path class="cls-26" d="M2783.6217502654,15.7346440504c-6.8113679194,6.1707807038-17.7454330003,26.8334967423-24.311125013,15.3543947451l-954.5315399854,957.0906057762-8.956730268-2.5590657908c305.7695354739-309.9119325071,615.8577871058-634.3705081569,930.2204149724-934.0590136586,5.8958727968-5.620659552,45.3731526911-43.7960013367,48.6222500261-43.5041184444,7.2044215967.6472097314.4318535217,9.0123831807,8.956730268,7.6771973725Z"/>
    </g>
  </g>
  <g>
    <g>
      <path class="cls-21" d="M693.592168939,173.8706637683l6.01222607,5.6349284734c4.4616612356,5.7566819305,5.1787180744,12.4182185719,1.545357431,18.8289959288-.7036937214,1.24161189-.596525318,2.4390593426-2.2997212121,1.0808946529-.2047075287-.7231258554-3.6657890535-4.1463698312-4.5578834372-4.8320417261-109.7960073866-49.2094741666-220.9511469289-96.0103153926-331.7573696176-143.007257922-6.7525769211-1.58712148-6.9915147279,5.8982556091-7.7260921017,10.6967929547,2.8591737969,59.1111437712-3.7092016893,121.6692432709-.0093468812,180.3795867444.9211685916,14.6173639821,8.2565483382,19.0739596396,20.557564195,25.2675088492,22.821728054,11.490717303,48.8584789421,19.583984707,71.8809998664,31.0594564177l2.2392308415.3612762803c.5069184005.3526922124,1.0440271146,1.2836058048,1.5022463683,1.502636415-2.3306970098-.2995752799-1.6332861546.6989174615-.2770290594,1.4041839719,2.1408541296,1.1132643853,5.4217886244,2.4429302676,7.7864518401,3.4811939205,4.5520597734,1.9986940115,10.192080392,4.735199357,15.0242727435,4.8817588052,60.9024218463,26.4296967014,122.4198106782,51.6586711577,183.032869692,78.7540025451,14.855605647,6.6407728716,34.6925576105,14.288705523,48.3266905027,22.2846733489,15.4048578498,9.0344394252,19.0286951019,28.3401772883,7.8105183271,42.4004298446-8.9559161213,11.224858109-46.7867352771,22.7744111365-61.7056892309,28.4364742616-66.2074759552,25.1271576661-132.8583227175,49.1743319401-199.246961631,73.8054738543-11.800186499-.4041495721-22.808785479-8.0521049534-34.1612760927-11.278809864l1.1118559905-2.2449178711c86.4546624896-35.3844759386,177.7045180148-62.8836866331,263.8321063804-98.6104267615,4.3307033054-1.7964268419,13.7722581435-4.3992982117,11.3441635175-10.4057804459-83.3676146499-38.4122307975-168.2527070191-73.5257386118-252.3948607761-110.2374342101-1.5769322022-.3857557918-2.7785693282-1.6843580155-4.0033295184-2.3852297966-9.8713205581-5.6488854528-15.499890267-7.751100332-26.2893114449-11.2697731126-12.665062489-4.1303615745-28.8379549096-11.320680878-41.0688140242-17.1476838554-23.8910339445-11.3821216174-38.3817116364-21.5260452579-40.0838361787-50.0639412619,2.9639354055-59.2736717553-3.8529743141-122.2476034466.0385632451-181.0918236601,1.8545643235-28.0430009453,22.1039879625-43.3958856403,48.5725593975-30.5679715157,94.4783903425,43.7038825806,190.16884411,84.8431494365,284.6756825854,128.4754176884,10.132558663,4.678037323,20.4258086954,9.1914907197,30.2881622118,14.4074070461Z"/>
      <path class="cls-27" d="M412.6720980704,313.6158503644c2.0078488851.2141700521,4.2977112227.8438584474,6.1686174405,1.5671729758.5341149156.2064951598.651578685,1.1671003626,1.1801483585,1.3763341105,3.2040318635,1.2683126344,8.6057493576,2.6209674112,11.4070983564,4.2170333754,1.7713813223,1.0092428467-.1677100933,1.2614742153-.7289077361,1.8552780283-100.3249584037,38.6972839347-202.0550524289,75.0309853234-302.2041702268,114.3204877547-6.127318404,4.2730446242-9.6332632569,9.8811864337-10.2901650432,17.5087599634l-.0032329026,188.6382992265c.2284749839,3.6655014569,1.815226571,7.2847607607,4.4992223684,9.7746553857l399.0217485287,162.8610448115c15.5542792692,3.6661280058,18.7525977236-8.5418941358,20.8820368306-20.9116717001l.0389134915-164.5537750877c-.5709770443-12.678446014-10.2322631704-20.623183766-20.7896327309-25.786698266-29.3002167421-14.3304724851-66.3294080296-25.7706759304-97.1637057887-37.6726846487-.3748109172-.1446766467-1.0129361615-1.3140253044-1.5022463683-1.502636415l1.0285177708-1.4924064801-33.7377417712-12.7799100174-.3401961018,1.4999069698-235.6295658947-92.2596579875c-7.8784741347-4.8113740998-4.9184644663-14.3511089826,3.7281986484-15.0218084204l253.6499521502,99.3793224624c.6370299289.3385959287,1.1583889243-.2969649595,1.5362338045-.3623563371l.7511231841,1.502636415c-.6695603094-.0929183508-2.5011054216-.4269263892-2.2477526644.7418421226,5.845814347,1.678039916,11.2442556269,4.5822566491,16.8693700614,6.7966312112,5.8442463413,2.3006377174,14.4714478487,6.1925608253,19.9300490734,5.9852544014,25.7264909372,11.6250332712,56.7974505158,19.3352402948,81.6359960818,32.167516196,19.7097597816,10.1826040816,26.9254864888,21.867003386,28.0637431654,44.0555182198,2.7321894642,53.2597152311-1.4364761881,109.5412638096-.879504833,162.9791633388-3.3683749705,24.8565922012-20.4153812364,41.5626598618-45.7131034684,30.1325928398l-396.3819825269-161.7445281137c-7.5220286603-5.2937921515-11.6096776921-13.4034002149-12.9005024091-22.4081038274l-.1194925681-190.0181142951c1.4328319241-15.0081362007,9.4497893913-26.7497657022,22.7969104001-33.5460361202l287.4440233192-107.2990620923Z"/>
      <path class="cls-27" d="M472.7619528016,306.8539864968c-4.8059924785.2391928117-15.467315869-5.2638856418-19.5292027877-8.2645002826l240.5976136238-91.0472954912,5.0196675902-4.370116862h.7511231841c-.5074137884.8495703593-1.5100781045,1.7502691824.36491147,1.4959931202,2.8416082562-2.6633842147,4.3547301187-4.6321564487,5.6440740032-8.2578569877,2.232554259-6.2780560544,2.041516351-9.5546295138-.7511231841-15.7776823576,15.7201828493,12.1868818919,12.9665483594,31.2024300903-4.0065747736,40.6958182966-9.0925939028,5.0856594302-23.2428167453,9.3172639455-33.3620296575,13.2110370131-53.8489699605,20.72055117-108.077919788,40.9600213204-162.2308447166,60.86854092-6.7254785094,2.4725224149-26.9444395234,11.169682757-32.4976147517,11.4460626313Z"/>
      <path class="cls-12" d="M418.6810835435,542.7679036536l-1.1118559905,2.2449178711c11.3524906137,3.2267049106,22.3610895937,10.874660292,34.1612760927,11.278809864-1.0578825982.9689664928-2.3938324434,1.2720272592-3.7556159207,1.502636415-.3752360578.0635437806-.8989897102.6992723017-1.5344462763.3599336331-9.5651367478-2.6087319472-22.8912256773-11.0800255193-32.26609701-12.3810249532l-.7511231841-1.502636415c1.8015930045-.3117910406,3.4593790704-1.1771609893,5.257862289-1.502636415Z"/>
      <path class="cls-11" d="M414.1743444387,545.7731764836c9.3748713328,1.3009994339,22.7009602622,9.772293006,32.26609701,12.3810249532.6354565661.3393386686,1.1592102185-.2963898525,1.5344462763-.3599336331l.7511231841,1.502636415c-5.4586012248.2073064239-14.0858027321-3.684616684-19.9300490734-5.9852544014-5.6251144345-2.214374562-11.0235557144-5.1185912952-16.8693700614-6.7966312112-.2533527572-1.1687685118,1.578192355-.8347604734,2.2477526644-.7418421226Z"/>
      <path class="cls-29" d="M693.592168939,173.8706637683c3.3186932421,1.7551618115,4.4763707368,2.495543266,7.5112318414,4.507909245,4.7602888969,5.2258412102,2.9304065361,10.1010610329,3.7556159207,15.7776823576-1.0120805699,3.9454890307-3.4781186048,6.0359674966-5.257862289,9.0158184901h-.7511231841c-.1856941816-1.1055686202.2672147013-2.8126596606,0-3.7565910375,1.703195894,1.3581646897,1.5960274906.1607172371,2.2997212121-1.0808946529,3.6333606433-6.4107773569,2.9163038045-13.0723139984-1.545357431-18.8289959288l-6.01222607-5.6349284734Z"/>
      <path class="cls-28" d="M437.459163147,321.1290324394c-.6895069698.111470004-1.6665174368-.1650593866-2.2533695524,0-6.4299415237-3.6593071525-13.581922969-5.9408416248-20.2803259718-9.0158184901-1.2201432418-.5601204107-2.8130028133-1.2984425861-3.7556159207-2.2539546225,10.7894211779,3.5186727806,16.4179908868,5.6208876598,26.2893114449,11.2697731126Z"/>
      <path class="cls-30" d="M453.232750014,298.5894862142c4.0618869186,3.0006146408,14.7232103092,8.5036930943,19.5292027877,8.2645002826-1.0825506694.9034232784-2.7454395026.4516839998-2.2533695524,2.2539546225-6.236027812-2.7150909821-13.5818326376-5.421633898-19.5292027877-8.2645002826-.4582192537-.2190306102-.9953279678-1.1499442026-1.5022463683-1.502636415l3.7556159207-.7513182075Z"/>
      <path class="cls-4" d="M435.2057935946,321.1290324394c-1.0655074355.2996870916-3.482332318,1.1075028318-4.5067391048,1.502636415.5611976427-.593803813,2.5002890584-.8460351816.7289077361-1.8552780283-2.8013489989-1.5960659642-8.2030664929-2.9487207411-11.4070983564-4.2170333754-.5285696735-.2092337479-.6460334429-1.1698389507-1.1801483585-1.3763341105-1.8709062178-.7233145284-4.1607685554-1.3530029237-6.1686174405-1.5671729758l2.2533695524-1.502636415c6.6984030028,3.0749768652,13.8503844481,5.3565113376,20.2803259718,9.0158184901Z"/>
      <path class="cls-12" d="M450.9793804616,300.8434408368c5.9473701501,2.8428663846,13.2931749756,5.5494093005,19.5292027877,8.2645002826,1.1828017732.5149775666,2.1780632901,1.1439925556,3.0044927366,1.502636415-4.8321923515-.1465594482-10.47221297-2.8830647937-15.0242727435-4.8817588052-2.3646632157-1.0382636529-5.6455977105-2.3679295352-7.7864518401-3.4811939205-1.3562570952-.7052665105-2.0536679505-1.7037592518.2770290594-1.4041839719Z"/>
      <path class="cls-25" d="M704.8590167011,180.6325276359c2.7926395351,6.2230528438,2.9836774431,9.4996263032.7511231841,15.7776823576.3792018325-.9070355076-.7037474001-1.9280562615-.7511231841-2.2539546225-.8252093846-5.6766213247,1.0046729762-10.5518411475-3.7556159207-15.7776823576,1.1132729528.7381927997,2.4078592439,1.2091225365,3.7556159207,2.2539546225Z"/>
      <path class="cls-12" d="M423.1878226484,565.3074498788c.4893102068.1886111106,1.1274354511,1.3579597683,1.5022463683,1.502636415l-6.7601086573,2.2539546225,3.0038608126-1.5107235912c-.1897618706-1.1115500828-1.3776394165-1.4534050565-2.2528753964-1.8701931715-5.8903998462-2.8050133963-21.0161974027-9.2770555067-26.8739017426-10.7139657724-1.7688014386-.4338916404-5.0329875143.2032369475-6.9265037758.5711547999.8120913618-1.0608727263,4.1775493257-2.2014706458,5.257862289-2.2539546225,2.5491106847-.1238413963,28.2798010502,10.1825783802,33.0494201022,12.0210913201Z"/>
      <path class="cls-11" d="M390.1384025462,552.5350403512l.3401961018-1.4999069698,33.7377417712,12.7799100174-1.0285177708,1.4924064801c-4.769619052-1.8385129399-30.5003094175-12.1449327164-33.0494201022-12.0210913201v-.7513182075Z"/>
      <path class="cls-11" d="M705.6101398852,196.4102099935c-1.2893438845,3.625700539-2.802465747,5.594472773-5.6440740032,8.2578569877-1.8749895744.2542760623-.8723252583-.6464227608-.36491147-1.4959931202,1.7797436842-2.9798509934,4.2457817191-5.0703294593,5.257862289-9.0158184901.047375784.325898361,1.1303250166,1.3469191149.7511231841,2.2539546225Z"/>
      <path class="cls-21" d="M384.8805402572,555.5403131812c1.8935162615-.3679178525,5.1577023372-1.0050464404,6.9265037758-.5711547999,5.85770434,1.4369102657,20.9835018964,7.908952376,26.8739017426,10.7139657724.8752359799.416788115,2.0631135258.7586430887,2.2528753964,1.8701931715l-3.0038608126,1.5107235912-230.9627825216,85.6516292346c-14.1889307069,2.2125167593-20.470083774-15.8179144476-7.9360375763-22.9582172706,55.9043947614-20.4876961014,111.4311172895-42.08015823,167.3546047649-62.505314386,11.0751680487-4.045027359,27.5905493492-11.593086325,38.4947952307-13.711825313Z"/>
    </g>
    <g>
      <path class="cls-3" d="M327.5012420718,851.7812579225l3.337277071-.1215582168c49.9578267824,1.4856912974,77.1494067621,47.0530805949,64.2319183851,93.5947807596-18.5990021842,67.0121898124-116.6377024767,65.2375491554-132.6230344137-2.333485987-11.0112906967-46.5454401297,15.6396063314-89.6769173506,65.0538389576-91.1397365558ZM322.7373333276,866.9346069152c-59.7815538062,5.2931173323-61.1793958019,104.8652877754-.5092022286,112.3722518038,30.2544007005,3.7434971669,53.6428846627-16.7650699788,57.7398214711-46.1090726792,5.2526227922-37.6215169051-16.9806017174-69.8269551027-57.2306192425-66.2631791246Z"/>
      <path class="cls-3" d="M602.768586106,854.2505381772v76.1917368597c.8394856952.1968678695.8341134664-.3056326699,1.220356985-.7290752082,1.8516137481-2.0299422192,3.6873191984-4.126874737,5.5027827252-6.1912465651,20.0884401844-22.8426566415,39.9311949479-46.1960870406,59.57949525-69.2714150864h19.9341255436l-44.5654610362,51.6513913699,50.1990182551,86.0132240926h-20.3674760989l-40.7408695288-73.1601221672-1.0499891459.4591407482-29.711982949,33.9557515954v38.7452298236h-16.9006716565v-137.6646154625h16.9006716565Z"/>
      <path class="cls-3" d="M423.3614562136,991.9151536396l52.6277613614-137.692574012,20.1329149943.071354198,51.6109330142,137.621219814h-17.9840480448l-13.0702234101-33.697156973-61.9165117618-.0991141684-12.9834275531,33.7962711415h-18.4173986001ZM511.7649694939,944.2953181023l-26.2177095769-72.7328456756-26.2177076139,72.7328456756h52.4354171908Z"/>
      <polygon class="cls-24" points="228.7870568859 854.2505381772 228.7870568859 868.3200350405 147.3171524903 976.330480191 230.9538096624 976.330480191 230.9538096624 991.9151536396 124.782923615 991.9151536396 124.782923615 978.2785643721 207.1195291211 869.40230403 125.2162741703 869.40230403 125.2162741703 854.2505381772 228.7870568859 854.2505381772"/>
      <polygon class="cls-3" points="585.4345638941 1022.651592941 618.3692060966 1070.7043360741 618.3692060966 1022.651592941 629.6363205343 1022.651592941 629.6363205343 1089.752270289 618.5858813743 1089.752270289 585.0012133388 1041.6995271559 585.0012133388 1089.752270289 573.7340989012 1089.752270289 573.7340989012 1022.651592941 585.4345638941 1022.651592941"/>
      <path class="cls-3" d="M216.5636208968,1021.4797910975c26.9255071778-2.6032040494,44.1636880655,19.6834728468,37.1390745344,45.3263602934-9.025180401,32.9458245901-58.6671357686,31.8094073209-66.2321759933-1.3650770908-4.8157177248-21.1180572537,6.5905767584-41.785700658,29.093101459-43.9612832026ZM217.8566604005,1031.4295455721c-26.8123746805,3.0138710879-25.3269818893,46.8899503208-.1130642787,49.2246645536,34.6748550543,3.2107615669,33.8494644795-53.0168374732.1130642787-49.2246645536Z"/>
      <path class="cls-3" d="M521.2117564484,1021.4824834827c24.4086671074-2.284594126,41.2528179212,15.7240511416,38.169909236,39.8625630891-2.5485656361,19.9547207971-19.827000346,32.0628406773-39.5473157123,29.2207023545-39.2360849954-5.654797032-38.5242158999-65.3485669574,1.3774064762-69.0832654436ZM522.5099085258,1031.4373382562c-26.2815198934,2.8252561831-25.7169059111,44.841899649-2.0096726299,48.9392339458,35.6381033004,6.1593531895,36.6654968336-52.6647255463,2.0096726299-48.9392339458Z"/>
      <path class="cls-3" d="M339.2914484863,1022.651592941v43.9401209731c0,5.1299766183,4.6387840659,11.362214053,9.4147978344,13.1060207481,11.4727946988,4.1889192906,22.6531432575-2.877972431,22.6531432575-15.2705587271v-41.7755829941h11.2671144377v46.104658952c0,11.4588856209-11.3875252641,20.2912126765-21.934592399,21.8114808301-18.5070079216,2.6676245065-32.0318982828-6.7474957662-33.1188672909-25.6897283618-.7917221181-13.7970672583.6282527546-28.353240296.0179391673-42.2264114203h11.700464993Z"/>
      <path class="cls-3" d="M692.0087862193,1026.5826299234l-3.8759775902,9.4890596497c-6.8077556333-3.0283064942-14.2636184137-5.163176156-21.8317629904-4.2824869019-5.812055359.6763368018-12.0127223384,6.1131932273-8.4323916724,12.2268116744,5.141533354,8.7794609193,28.5053334723,4.9823841596,35.2445058036,18.9049929024,5.9096021916,12.2087810036-1.9477507146,24.3619791946-14.493203931,27.062724037-11.8345018222,2.5476935116-24.1818998379-.2078404149-34.6521770495-5.8943737846-.6040057016-.835851881,4.469127856-8.2755545725,5.4173876861-9.4818279204,7.6870400638,4.5518098687,19.3742547856,8.2842064864,28.0391311691,4.6577985723,6.1904811022-2.5908286129,7.3084193784-10.4821523837,1.4824055391-14.2737984232-8.8770511627-5.777301052-24.9710162789-4.0222481375-31.4261407086-14.4941874594-4.7429803572-7.6943834386-2.9925199776-18.2817784583,4.1139357396-23.8756819435,10.9676767219-8.6332944974,28.6385795199-5.4268751956,40.4142880047-.0390304028Z"/>
      <path class="cls-3" d="M172.8549336561,1026.5826135749l-3.8760888264,9.4890761669c-7.0328121327-3.8166954282-26.6956806989-8.1968928208-30.5429621901,1.3015520541-2.7667099002,6.8306521194,3.1270199254,9.951860871,8.5502626149,11.7999295795,11.1051015118,3.7842655739,27.1752482742,4.352410596,28.5144048402,19.5674819551,2.379490084,27.0350102029-34.7690396565,25.5247799898-50.6590297648,15.3191766283-.5094123157-.8723049615,4.349015089-8.3577787109,5.4136168591-9.4254284619,7.6570926764,4.6295796243,21.5507230087,9.0174227737,29.5925006744,3.6091742675,4.728449841-3.1799724952,4.9741576131-9.809677853.1818740092-13.0956295066-11.1694013212-7.6585852957-35.565735056-3.5610853454-34.3935544137-25.4139099036,1.1893083951-22.1721352201,32.9147781236-21.0235955533,47.2189761971-13.1514227792Z"/>
      <polygon class="cls-24" points="452.8292939737 1022.651592941 452.8292939737 1032.6084676442 430.0783898207 1032.6084676442 429.4283639877 1033.2578290379 429.4283639877 1089.752270289 418.1612495501 1089.752270289 418.1612495501 1033.2578290379 417.5112237171 1032.6084676442 394.7603195641 1032.6084676442 394.7603195641 1022.651592941 452.8292939737 1022.651592941"/>
      <polygon class="cls-3" points="280.7891235214 1022.651592941 280.7891235214 1079.36248799 316.1071937779 1079.36248799 316.7572196109 1080.0118493837 316.7572196109 1089.752270289 269.5220090837 1089.752270289 269.5220090837 1022.651592941 280.7891235214 1022.651592941"/>
      <rect class="cls-3" x="464.963109522" y="1022.651592941" width="11.700464993" height="67.1006773481"/>
    </g>
  </g>
  <g>
    <rect class="cls-9" x="2276.7890409017" y="314.0204261773" width="440.3991893364" height="63.866401813" transform="translate(4018.0000766401 2356.2173795281) rotate(-135)"/>
    <rect class="cls-10" x="1860.9829828908" y="244.5800679476" width="375.2044677718" height="63.866401813" transform="translate(136.2031207702 1061.3417196139) rotate(-30.0001005976)"/>
    <rect class="cls-1" x="2249.4808600386" y="772.8736895671" width="495.0155510627" height="63.866401813" transform="translate(162.2666290131 2001.3600774313) rotate(-45)"/>
    <rect class="cls-9" x="2331.3726664107" y="617.9597679299" width="320.889614772" height="63.866401813" transform="translate(5055.6371606901 408.3483419884) rotate(160.0001679565)"/>
    <rect class="cls-1" x="2329.5927790778" y="474.4510014791" width="352.5544596941" height="63.866401813" transform="translate(324.3243523872 -826.5329032501) rotate(20.0003568662)"/>
    <rect class="cls-9" x="1876.5520679756" y="830.3357619312" width="352.5544596941" height="63.866401813" transform="translate(706.1680621721 -910.8975286877) rotate(30.0002134088)"/>
    <rect class="cls-8" x="1860.134645757" y="692.2327744594" width="374.8466506407" height="63.866401813"/>
    <rect class="cls-10" x="1872.3079869296" y="544.7651980959" width="352.5544596941" height="63.866401813" transform="translate(648.4931682689 -1026.1193353371) rotate(33.1396912087)"/>
    <rect class="cls-18" x="1861.5956981419" y="538.141859044" width="387.1564323132" height="63.866401813" transform="translate(28.9458733719 1235.7516467051) rotate(-33.6901335428)"/>
    <rect class="cls-8" x="1859.1073350894" y="390.4389886757" width="374.8466506407" height="63.866401813"/>
    <line class="cls-15" x1="1939.1662519983" y1="690.2838240049" x2="1931.1728182387" y2="690.263880239"/>
    <line class="cls-15" x1="1945.9983650949" y1="690.3438699208" x2="1930.8796306209" y2="690.2601195903"/>
    <path class="cls-15" d="M1952.4160286078,690.3975169345l-21.2423606964-.1389640777,21.2423606964.1389640777Z"/>
    <line class="cls-15" x1="1939.6532108776" y1="685.3857567626" x2="1931.9382342523" y2="690.2585528568"/>
    <line class="cls-15" x1="1931.4764783864" y1="691.2932359159" x2="2048.5852167767" y2="613.2205487509"/>
    <line class="cls-15" x1="2273.545686661" y1="1112.0849162049" x2="2272.8377313247" y2="18.3477948146"/>
    <line class="cls-15" x1="2630.0201208356" y1="506.3842023856" x2="2546.1809677436" y2="480.1843441015"/>
    <line class="cls-15" x1="1935.6100207217" y1="459.0275233164" x2="1930.9966540259" y2="455.6663418474"/>
    <circle class="cls-22" cx="1819.1075910493" cy="730.7151695707" r="112.8306432029"/>
    <circle class="cls-22" cx="1819.1075910493" cy="437.9590391766" r="112.8306432029"/>
    <circle class="cls-5" cx="2694.5832449505" cy="569.070768102" r="112.8306432029"/>
    <g>
      <path class="cls-14" d="M2385.6051660208,150.7745153959c0,62.3229507755-50.5184121909,112.8306432029-112.8306432029,112.8306432029V37.943872193c62.312231012,0,112.8306432029,50.5183472226,112.8306432029,112.8306432029Z"/>
      <path class="cls-2" d="M2272.7745228179,37.943872193v225.6612864058c-62.312231012,0-112.8306432029-50.5076924274-112.8306432029-112.8306432029,0-62.3122959803,50.5184121909-112.8306432029,112.8306432029-112.8306432029Z"/>
    </g>
    <g>
      <path class="cls-14" d="M2386.3579579978,433.341102521c0,62.3229507755-50.5184121909,112.8306432029-112.8306432029,112.8306432029v-225.6612864058c62.312231012,0,112.8306432029,50.5183472226,112.8306432029,112.8306432029Z"/>
      <path class="cls-2" d="M2273.5273147948,320.5104593181v225.6612864058c-62.312231012,0-112.8306432029-50.5076924274-112.8306432029-112.8306432029,0-62.3122959803,50.5184121909-112.8306432029,112.8306432029-112.8306432029Z"/>
    </g>
    <g>
      <path class="cls-14" d="M2386.3579579978,722.8687907398c0,62.3229507755-50.5184121909,112.8306432029-112.8306432029,112.8306432029v-225.6612864058c62.312231012,0,112.8306432029,50.5183472226,112.8306432029,112.8306432029Z"/>
      <path class="cls-2" d="M2273.5273147948,610.0381475369v225.6612864058c-62.312231012,0-112.8306432029-50.5076924274-112.8306432029-112.8306432029,0-62.3122959803,50.5184121909-112.8306432029,112.8306432029-112.8306432029Z"/>
    </g>
    <g>
      <path class="cls-14" d="M2386.3579579978,989.6901184379c0,62.3229507755-50.5184121909,112.8306432029-112.8306432029,112.8306432029v-225.6612864058c62.312231012,0,112.8306432029,50.5183472226,112.8306432029,112.8306432029Z"/>
      <path class="cls-2" d="M2273.5273147948,876.859475235v225.6612864058c-62.312231012,0-112.8306432029-50.5076924274-112.8306432029-112.8306432029,0-62.3122959803,50.5184121909-112.8306432029,112.8306432029-112.8306432029Z"/>
    </g>
  </g>
</svg>