<?xml version="1.0" encoding="UTF-8"?>
<svg id="Layer_1" data-name="Layer 1" xmlns="http://www.w3.org/2000/svg" viewBox="0 0 2716.22 1093.74">
  <defs>
    <style>
      .cls-1 {
        fill: #0f1246;
      }

      .cls-2 {
        fill: #66b7f3;
      }

      .cls-3 {
        fill: #79878e;
      }

      .cls-4 {
        fill: #f08525;
      }

      .cls-5 {
        fill: #f33175;
      }

      .cls-6 {
        fill: #f08b23;
      }

      .cls-7 {
        fill: #464e7d;
      }

      .cls-8 {
        fill: #598db5;
      }

      .cls-9 {
        fill: #f08423;
      }

      .cls-10 {
        fill: #fde503;
      }

      .cls-11 {
        fill: #5186ed;
      }

      .cls-12 {
        fill: none;
      }

      .cls-13 {
        fill: #fedc01;
      }

      .cls-14 {
        fill: #fedc00;
      }

      .cls-15 {
        fill: #14f7e6;
      }

      .cls-16 {
        fill: #77868d;
      }

      .cls-17 {
        fill: #f08722;
      }

      .cls-18 {
        fill: #f18b20;
      }

      .cls-19 {
        fill: #fde405;
      }

      .cls-20 {
        fill: #fde505;
      }

      .cls-21 {
        fill: #f08626;
      }
    </style>
  </defs>
  <g>
    <g>
      <path class="cls-14" d="M602.4,155.52l6.01,5.63c4.46,5.76,5.18,12.42,1.55,18.83-.7,1.24-.6,2.44-2.3,1.08-.2-.72-3.67-4.15-4.56-4.83-109.8-49.21-220.95-96.01-331.76-143.01-6.75-1.59-6.99,5.9-7.73,10.7,2.86,59.11-3.71,121.67,0,180.38.92,14.62,8.26,19.07,20.56,25.27,22.82,11.49,48.86,19.58,71.88,31.06l2.24.36c.51.35,1.04,1.28,1.5,1.5-2.33-.3-1.63.7-.28,1.4,2.14,1.11,5.42,2.44,7.79,3.48,4.55,2,10.19,4.74,15.02,4.88,60.9,26.43,122.42,51.66,183.03,78.75,14.86,6.64,34.69,14.29,48.33,22.28,15.4,9.03,19.03,28.34,7.81,42.4-8.96,11.22-46.79,22.77-61.71,28.44-66.21,25.13-132.86,49.17-199.25,73.81-11.8-.4-22.81-8.05-34.16-11.28l1.11-2.24c86.45-35.38,177.7-62.88,263.83-98.61,4.33-1.8,13.77-4.4,11.34-10.41-83.37-38.41-168.25-73.53-252.39-110.24-1.58-.39-2.78-1.68-4-2.39-9.87-5.65-15.5-7.75-26.29-11.27-12.67-4.13-28.84-11.32-41.07-17.15-23.89-11.38-38.38-21.53-40.08-50.06,2.96-59.27-3.85-122.25.04-181.09,1.85-28.04,22.1-43.4,48.57-30.57,94.48,43.7,190.17,84.84,284.68,128.48,10.13,4.68,20.43,9.19,30.29,14.41Z"/>
      <path class="cls-18" d="M321.48,295.27c2.01.21,4.3.84,6.17,1.57.53.21.65,1.17,1.18,1.38,3.2,1.27,8.61,2.62,11.41,4.22,1.77,1.01-.17,1.26-.73,1.86-100.32,38.7-202.06,75.03-302.2,114.32-6.13,4.27-9.63,9.88-10.29,17.51v188.64c.23,3.67,1.81,7.28,4.5,9.77l399.02,162.86c15.55,3.67,18.75-8.54,20.88-20.91l.04-164.55c-.57-12.68-10.23-20.62-20.79-25.79-29.3-14.33-66.33-25.77-97.16-37.67-.37-.14-1.01-1.31-1.5-1.5l1.03-1.49-33.74-12.78-.34,1.5-235.63-92.26c-7.88-4.81-4.92-14.35,3.73-15.02l253.65,99.38c.64.34,1.16-.3,1.54-.36l.75,1.5c-.67-.09-2.5-.43-2.25.74,5.85,1.68,11.24,4.58,16.87,6.8s14.47,6.19,19.93,5.99c25.73,11.63,56.8,19.34,81.64,32.17,19.71,10.18,26.93,21.87,28.06,44.06,2.73,53.26-1.44,109.54-.88,162.98-3.37,24.86-20.42,41.56-45.71,30.13L24.26,648.54c-7.52-5.29-11.61-13.4-12.9-22.41l-.12-190.02c1.43-15.01,9.45-26.75,22.8-33.55l287.44-107.3Z"/>
      <path class="cls-18" d="M381.57,288.51c-4.81.24-15.47-5.26-19.53-8.26l240.6-91.05,5.02-4.37h.75c-.51.85-1.51,1.75.36,1.5,2.84-2.66,4.35-4.63,5.64-8.26,2.23-6.28,2.04-9.55-.75-15.78,15.72,12.19,12.97,31.2-4.01,40.7-9.09,5.09-23.24,9.32-33.36,13.21-53.85,20.72-108.08,40.96-162.23,60.87-6.73,2.47-26.94,11.17-32.5,11.45Z"/>
      <path class="cls-10" d="M327.49,524.42l-1.11,2.24c11.35,3.23,22.36,10.87,34.16,11.28-1.06.97-2.39,1.27-3.76,1.5-.38.06-.9.7-1.53.36-9.57-2.61-22.89-11.08-32.27-12.38l-.75-1.5c1.8-.31,3.46-1.18,5.26-1.5Z"/>
      <path class="cls-9" d="M322.98,527.43c9.37,1.3,22.7,9.77,32.27,12.38.64.34,1.16-.3,1.53-.36l.75,1.5c-5.46.21-14.09-3.68-19.93-5.99s-11.02-5.12-16.87-6.8c-.25-1.17,1.58-.83,2.25-.74Z"/>
      <path class="cls-20" d="M602.4,155.52c3.32,1.76,4.48,2.5,7.51,4.51,4.76,5.23,2.93,10.1,3.76,15.78-1.01,3.95-3.48,6.04-5.26,9.02h-.75c-.19-1.11.27-2.81,0-3.76,1.7,1.36,1.6.16,2.3-1.08,3.63-6.41,2.92-13.07-1.55-18.83l-6.01-5.63Z"/>
      <path class="cls-19" d="M346.27,302.78c-.69.11-1.67-.17-2.25,0-6.43-3.66-13.58-5.94-20.28-9.02-1.22-.56-2.81-1.3-3.76-2.25,10.79,3.52,16.42,5.62,26.29,11.27Z"/>
      <path class="cls-21" d="M362.04,280.24c4.06,3,14.72,8.5,19.53,8.26-1.08.9-2.75.45-2.25,2.25-6.24-2.72-13.58-5.42-19.53-8.26-.46-.22-1-1.15-1.5-1.5l3.76-.75Z"/>
      <path class="cls-4" d="M344.01,302.78c-1.07.3-3.48,1.11-4.51,1.5.56-.59,2.5-.85.73-1.86-2.8-1.6-8.2-2.95-11.41-4.22-.53-.21-.65-1.17-1.18-1.38-1.87-.72-4.16-1.35-6.17-1.57l2.25-1.5c6.7,3.07,13.85,5.36,20.28,9.02Z"/>
      <path class="cls-10" d="M359.79,282.5c5.95,2.84,13.29,5.55,19.53,8.26,1.18.51,2.18,1.14,3,1.5-4.83-.15-10.47-2.88-15.02-4.88-2.36-1.04-5.65-2.37-7.79-3.48-1.36-.71-2.05-1.7.28-1.4Z"/>
      <path class="cls-17" d="M613.67,162.28c2.79,6.22,2.98,9.5.75,15.78.38-.91-.7-1.93-.75-2.25-.83-5.68,1-10.55-3.76-15.78,1.11.74,2.41,1.21,3.76,2.25Z"/>
      <path class="cls-10" d="M332,546.96c.49.19,1.13,1.36,1.5,1.5l-6.76,2.25,3-1.51c-.19-1.11-1.38-1.45-2.25-1.87-5.89-2.81-21.02-9.28-26.87-10.71-1.77-.43-5.03.2-6.93.57.81-1.06,4.18-2.2,5.26-2.25,2.55-.12,28.28,10.18,33.05,12.02Z"/>
      <path class="cls-9" d="M298.95,534.19l.34-1.5,33.74,12.78-1.03,1.49c-4.77-1.84-30.5-12.14-33.05-12.02v-.75Z"/>
      <path class="cls-9" d="M614.42,178.06c-1.29,3.63-2.8,5.59-5.64,8.26-1.87.25-.87-.65-.36-1.5,1.78-2.98,4.25-5.07,5.26-9.02.05.33,1.13,1.35.75,2.25Z"/>
      <path class="cls-14" d="M293.69,537.19c1.89-.37,5.16-1.01,6.93-.57,5.86,1.44,20.98,7.91,26.87,10.71.88.42,2.06.76,2.25,1.87l-3,1.51-230.96,85.65c-14.19,2.21-20.47-15.82-7.94-22.96,55.9-20.49,111.43-42.08,167.35-62.51,11.08-4.05,27.59-11.59,38.49-13.71Z"/>
    </g>
    <g>
      <path class="cls-3" d="M236.31,833.43l3.34-.12c49.96,1.49,77.15,47.05,64.23,93.59-18.6,67.01-116.64,65.24-132.62-2.33-11.01-46.55,15.64-89.68,65.05-91.14ZM231.55,848.59c-59.78,5.29-61.18,104.87-.51,112.37,30.25,3.74,53.64-16.77,57.74-46.11,5.25-37.62-16.98-69.83-57.23-66.26Z"/>
      <path class="cls-3" d="M511.58,835.9v76.19c.84.2.83-.31,1.22-.73,1.85-2.03,3.69-4.13,5.5-6.19,20.09-22.84,39.93-46.2,59.58-69.27h19.93l-44.57,51.65,50.2,86.01h-20.37l-40.74-73.16-1.05.46-29.71,33.96v38.75h-16.9v-137.66h16.9Z"/>
      <path class="cls-3" d="M332.17,973.57l52.63-137.69,20.13.07,51.61,137.62h-17.98l-13.07-33.7-61.92-.1-12.98,33.8h-18.42ZM420.57,925.95l-26.22-72.73-26.22,72.73h52.44Z"/>
      <polygon class="cls-16" points="137.6 835.9 137.6 849.97 56.13 957.98 139.76 957.98 139.76 973.57 33.59 973.57 33.59 959.93 115.93 851.05 34.02 851.05 34.02 835.9 137.6 835.9"/>
      <polygon class="cls-3" points="494.24 1004.3 527.18 1052.36 527.18 1004.3 538.44 1004.3 538.44 1071.4 527.39 1071.4 493.81 1023.35 493.81 1071.4 482.54 1071.4 482.54 1004.3 494.24 1004.3"/>
      <path class="cls-3" d="M125.37,1003.13c26.93-2.6,44.16,19.68,37.14,45.33-9.03,32.95-58.67,31.81-66.23-1.37-4.82-21.12,6.59-41.79,29.09-43.96ZM126.67,1013.08c-26.81,3.01-25.33,46.89-.11,49.22,34.67,3.21,33.85-53.02.11-49.22Z"/>
      <path class="cls-3" d="M430.02,1003.13c24.41-2.28,41.25,15.72,38.17,39.86-2.55,19.95-19.83,32.06-39.55,29.22-39.24-5.65-38.52-65.35,1.38-69.08ZM431.32,1013.09c-26.28,2.83-25.72,44.84-2.01,48.94,35.64,6.16,36.67-52.66,2.01-48.94Z"/>
      <path class="cls-3" d="M248.1,1004.3v43.94c0,5.13,4.64,11.36,9.41,13.11,11.47,4.19,22.65-2.88,22.65-15.27v-41.78h11.27v46.1c0,11.46-11.39,20.29-21.93,21.81-18.51,2.67-32.03-6.75-33.12-25.69-.79-13.8.63-28.35.02-42.23h11.7Z"/>
      <path class="cls-3" d="M600.82,1008.23l-3.88,9.49c-6.81-3.03-14.26-5.16-21.83-4.28-5.81.68-12.01,6.11-8.43,12.23,5.14,8.78,28.51,4.98,35.24,18.9,5.91,12.21-1.95,24.36-14.49,27.06-11.83,2.55-24.18-.21-34.65-5.89-.6-.84,4.47-8.28,5.42-9.48,7.69,4.55,19.37,8.28,28.04,4.66,6.19-2.59,7.31-10.48,1.48-14.27-8.88-5.78-24.97-4.02-31.43-14.49-4.74-7.69-2.99-18.28,4.11-23.88,10.97-8.63,28.64-5.43,40.41-.04Z"/>
      <path class="cls-3" d="M81.66,1008.23l-3.88,9.49c-7.03-3.82-26.7-8.2-30.54,1.3-2.77,6.83,3.13,9.95,8.55,11.8,11.11,3.78,27.18,4.35,28.51,19.57,2.38,27.04-34.77,25.52-50.66,15.32-.51-.87,4.35-8.36,5.41-9.43,7.66,4.63,21.55,9.02,29.59,3.61,4.73-3.18,4.97-9.81.18-13.1-11.17-7.66-35.57-3.56-34.39-25.41s32.91-21.02,47.22-13.15Z"/>
      <polygon class="cls-16" points="361.64 1004.3 361.64 1014.26 338.89 1014.26 338.24 1014.91 338.24 1071.4 326.97 1071.4 326.97 1014.91 326.32 1014.26 303.57 1014.26 303.57 1004.3 361.64 1004.3"/>
      <polygon class="cls-3" points="189.6 1004.3 189.6 1061.01 224.92 1061.01 225.57 1061.66 225.57 1071.4 178.33 1071.4 178.33 1004.3 189.6 1004.3"/>
      <rect class="cls-3" x="373.77" y="1004.3" width="11.7" height="67.1"/>
    </g>
  </g>
  <g>
    <rect class="cls-7" x="2185.6" y="295.67" width="440.4" height="63.87" transform="translate(3875.3 2260.41) rotate(-135)"/>
    <rect class="cls-8" x="1769.79" y="226.23" width="375.2" height="63.87" transform="translate(133.16 1013.29) rotate(-30)"/>
    <rect class="cls-1" x="2158.29" y="754.53" width="495.02" height="63.87" transform="translate(148.53 1931.5) rotate(-45)"/>
    <rect class="cls-7" x="2240.18" y="599.61" width="320.89" height="63.87" transform="translate(4872.48 403.95) rotate(160)"/>
    <rect class="cls-1" x="2238.4" y="456.1" width="352.55" height="63.87" transform="translate(312.55 -796.45) rotate(20)"/>
    <rect class="cls-7" x="1785.36" y="811.99" width="352.55" height="63.87" transform="translate(684.78 -867.76) rotate(30)"/>
    <rect class="cls-6" x="1768.94" y="673.88" width="374.85" height="63.87"/>
    <rect class="cls-8" x="1781.12" y="526.42" width="352.55" height="63.87" transform="translate(623.63 -979.25) rotate(33.14)"/>
    <rect class="cls-13" x="1770.4" y="519.79" width="387.16" height="63.87" transform="translate(23.81 1182.09) rotate(-33.69)"/>
    <rect class="cls-6" x="1767.92" y="372.09" width="374.85" height="63.87"/>
    <line class="cls-12" x1="1847.97" y1="671.94" x2="1839.98" y2="671.92"/>
    <line class="cls-12" x1="1854.81" y1="672" x2="1839.69" y2="671.91"/>
    <path class="cls-12" d="M1861.22,672.05l-21.24-.14,21.24.14Z"/>
    <line class="cls-12" x1="1848.46" y1="667.04" x2="1840.75" y2="671.91"/>
    <line class="cls-12" x1="1840.29" y1="672.95" x2="1957.39" y2="594.87"/>
    <line class="cls-12" x1="2182.35" y1="1093.74" x2="2181.65"/>
    <line class="cls-12" x1="2538.83" y1="488.04" x2="2454.99" y2="461.84"/>
    <line class="cls-12" x1="1844.42" y1="440.68" x2="1839.81" y2="437.32"/>
    <circle class="cls-15" cx="1727.92" cy="712.37" r="112.83"/>
    <circle class="cls-15" cx="1727.92" cy="419.61" r="112.83"/>
    <circle class="cls-5" cx="2603.39" cy="550.72" r="112.83"/>
    <g>
      <path class="cls-11" d="M2294.41,132.43c0,62.32-50.52,112.83-112.83,112.83V19.6c62.31,0,112.83,50.52,112.83,112.83Z"/>
      <path class="cls-2" d="M2181.58,19.6v225.66c-62.31,0-112.83-50.51-112.83-112.83s50.52-112.83,112.83-112.83Z"/>
    </g>
    <g>
      <path class="cls-11" d="M2295.17,414.99c0,62.32-50.52,112.83-112.83,112.83v-225.66c62.31,0,112.83,50.52,112.83,112.83Z"/>
      <path class="cls-2" d="M2182.34,302.16v225.66c-62.31,0-112.83-50.51-112.83-112.83s50.52-112.83,112.83-112.83Z"/>
    </g>
    <g>
      <path class="cls-11" d="M2295.17,704.52c0,62.32-50.52,112.83-112.83,112.83v-225.66c62.31,0,112.83,50.52,112.83,112.83Z"/>
      <path class="cls-2" d="M2182.34,591.69v225.66c-62.31,0-112.83-50.51-112.83-112.83s50.52-112.83,112.83-112.83Z"/>
    </g>
    <g>
      <path class="cls-11" d="M2295.17,971.34c0,62.32-50.52,112.83-112.83,112.83v-225.66c62.31,0,112.83,50.52,112.83,112.83Z"/>
      <path class="cls-2" d="M2182.34,858.51v225.66c-62.31,0-112.83-50.51-112.83-112.83s50.52-112.83,112.83-112.83Z"/>
    </g>
  </g>
</svg>