<?xml version="1.0" encoding="UTF-8"?>
<svg id="Layer_1" data-name="Layer 1" xmlns="http://www.w3.org/2000/svg" xmlns:xlink="http://www.w3.org/1999/xlink" viewBox="0 0 2826.49 1111.34">
  <defs>
    <style>
      .cls-1 {
        fill: #0f1246;
      }

      .cls-2 {
        fill: #66b7f3;
      }

      .cls-3 {
        fill: #79878e;
      }

      .cls-4 {
        fill: #f08525;
      }

      .cls-5 {
        fill: #f33175;
      }

      .cls-6 {
        fill: url(#linear-gradient-2);
      }

      .cls-7 {
        fill: #f08b23;
      }

      .cls-8 {
        fill: #464e7d;
      }

      .cls-9 {
        fill: #598db5;
      }

      .cls-10 {
        fill: #f08423;
      }

      .cls-11 {
        fill: #fde503;
      }

      .cls-12 {
        fill: #5186ed;
      }

      .cls-13 {
        fill: none;
      }

      .cls-14 {
        fill: url(#linear-gradient-4);
      }

      .cls-15 {
        fill: #a9cfc2;
      }

      .cls-16 {
        fill: #fedc01;
      }

      .cls-17 {
        fill: url(#linear-gradient-3);
      }

      .cls-18 {
        fill: url(#linear-gradient-5);
      }

      .cls-19 {
        fill: #fedc00;
      }

      .cls-20 {
        fill: #14f7e6;
      }

      .cls-21 {
        fill: #f9ebd3;
      }

      .cls-22 {
        fill: #77868d;
      }

      .cls-23 {
        fill: #f08722;
      }

      .cls-24 {
        fill: #f2f1f1;
      }

      .cls-25 {
        fill: #f18b20;
      }

      .cls-26 {
        fill: #fde405;
      }

      .cls-27 {
        fill: #fde505;
      }

      .cls-28 {
        fill: #f08626;
      }

      .cls-29 {
        fill: url(#linear-gradient);
      }
    </style>
    <linearGradient id="linear-gradient" x1="1220.28" y1="261.58" x2="805.87" y2="499.8" gradientTransform="translate(-219.13 -300.5) scale(2.56)" gradientUnits="userSpaceOnUse">
      <stop offset="0" stop-color="#c3dfc7"/>
      <stop offset=".9" stop-color="#8fcbd0"/>
    </linearGradient>
    <linearGradient id="linear-gradient-2" x1="1196.7" y1="332" x2="945.42" y2="538.11" gradientTransform="translate(-219.13 -300.5) scale(2.56)" gradientUnits="userSpaceOnUse">
      <stop offset="0" stop-color="#c4e0c6"/>
      <stop offset="1" stop-color="#9bccc8"/>
    </linearGradient>
    <linearGradient id="linear-gradient-3" x1="63.96" y1="288.22" x2="360.11" y2="560.06" gradientTransform="translate(-219.13 -300.5) scale(2.56)" gradientUnits="userSpaceOnUse">
      <stop offset="0" stop-color="#fce0b8"/>
      <stop offset="1" stop-color="#ebb8b3"/>
    </linearGradient>
    <linearGradient id="linear-gradient-4" x1="80.4" y1="200.44" x2="443.22" y2="541.56" gradientTransform="translate(-219.13 -300.5) scale(2.56)" gradientUnits="userSpaceOnUse">
      <stop offset="0" stop-color="#fce0b9"/>
      <stop offset=".93" stop-color="#f0b8b7"/>
    </linearGradient>
    <linearGradient id="linear-gradient-5" x1="60.34" y1="430.73" x2="197.71" y2="574.72" gradientTransform="translate(-219.13 -300.5) scale(2.56)" gradientUnits="userSpaceOnUse">
      <stop offset="0" stop-color="#fce1b8"/>
      <stop offset="1" stop-color="#efccb3"/>
    </linearGradient>
  </defs>
  <g id="Generative_Object" data-name="Generative Object">
    <path class="cls-21" d="M54.31.1l1097.84,1104.24-152.26,1.28L5.69,110.14,3.13,6.5C7.2-2.19,44.79.49,54.31.1Z"/>
    <g>
      <path class="cls-29" d="M2820.66,422.34l-683.27,683.27c-93.94.06-195.54,7.93-293.01,5.12-4.67-.13-12.63,2.56-11.52-5.12L2820.66,120.37c3.07,94.45-.46,204.79,0,301.97Z"/>
      <path class="cls-6" d="M2820.66,625.75l-478.55,478.55c-62.91.2-143.15-.04-202.17,0l680.71-680.71c.29,62.38.05,138.63,0,202.17Z"/>
      <path class="cls-15" d="M2347.23,1105.61l473.43-473.43c0,.26,5.12-.8,5.12,1.28-.14,159.03,3.29,318.39-3.84,477.27-156.86-3.15-313.92-.53-470.87,0-1.83,0-3.52-5.12-3.84-5.12Z"/>
      <path class="cls-24" d="M2820.66,424.9l-680.71,680.71c-.85,0-1.71,0-2.56,0l683.27-683.27c0,.85,0,1.71,0,2.56Z"/>
      <path class="cls-24" d="M2820.66,632.19l-473.43,473.43c-1.69,0-3.43,0-5.12,0l478.55-478.55c0,1.69,0,3.43,0,5.12Z"/>
    </g>
    <g>
      <path class="cls-17" d="M5.69,291.83l813.78,813.78c-114.07.11-246.03.57-365.95,0L5.69,655.22c0-.32-5.12-1.99-5.12-3.84-.05-120.28.04-240.55,0-360.83l5.12,1.28Z"/>
      <path class="cls-14" d="M993.49,1108.17l-171.46-2.56L5.69,286.71c0-2.97-5.12-5.33-5.12-6.4-.01-54.07-1.28-108.5,0-162.5l992.92,990.36Z"/>
      <path class="cls-18" d="M5.69,660.34l445.28,445.28c-.63,0-10.67,5.12-11.52,5.12-146.28-.75-292.59-3.01-438.88-3.84-.05-148.43.06-296.85,0-445.28,0-2.08,5.12-1.02,5.12-1.28Z"/>
      <path class="cls-24" d="M822.03,1105.61c-.85,0-1.71,0-2.56,0L5.69,291.83v-5.12l816.34,818.9Z"/>
      <path class="cls-24" d="M453.53,1105.61c-.85,0-1.71,0-2.56,0L5.69,660.34c0-1.68,0-3.43,0-5.12l447.84,450.4Z"/>
    </g>
  </g>
  <g>
    <g>
      <path class="cls-19" d="M692.25,168.47l6.01,5.63c4.46,5.76,5.18,12.42,1.55,18.83-.7,1.24-.6,2.44-2.3,1.08-.2-.72-3.67-4.15-4.56-4.83-109.8-49.21-220.95-96.01-331.76-143.01-6.75-1.59-6.99,5.9-7.73,10.7,2.86,59.11-3.71,121.67,0,180.38.92,14.62,8.26,19.07,20.56,25.27,22.82,11.49,48.86,19.58,71.88,31.06l2.24.36c.51.35,1.04,1.28,1.5,1.5-2.33-.3-1.63.7-.28,1.4,2.14,1.11,5.42,2.44,7.79,3.48,4.55,2,10.19,4.74,15.02,4.88,60.9,26.43,122.42,51.66,183.03,78.75,14.86,6.64,34.69,14.29,48.33,22.28,15.4,9.03,19.03,28.34,7.81,42.4-8.96,11.22-46.79,22.77-61.71,28.44-66.21,25.13-132.86,49.17-199.25,73.81-11.8-.4-22.81-8.05-34.16-11.28l1.11-2.24c86.45-35.38,177.7-62.88,263.83-98.61,4.33-1.8,13.77-4.4,11.34-10.41-83.37-38.41-168.25-73.53-252.39-110.24-1.58-.39-2.78-1.68-4-2.39-9.87-5.65-15.5-7.75-26.29-11.27-12.67-4.13-28.84-11.32-41.07-17.15-23.89-11.38-38.38-21.53-40.08-50.06,2.96-59.27-3.85-122.25.04-181.09,1.85-28.04,22.1-43.4,48.57-30.57,94.48,43.7,190.17,84.84,284.68,128.48,10.13,4.68,20.43,9.19,30.29,14.41Z"/>
      <path class="cls-25" d="M411.33,308.22c2.01.21,4.3.84,6.17,1.57.53.21.65,1.17,1.18,1.38,3.2,1.27,8.61,2.62,11.41,4.22,1.77,1.01-.17,1.26-.73,1.86-100.32,38.7-202.06,75.03-302.2,114.32-6.13,4.27-9.63,9.88-10.29,17.51v188.64c.23,3.67,1.81,7.28,4.5,9.77l399.02,162.86c15.55,3.67,18.75-8.54,20.88-20.91l.04-164.55c-.57-12.68-10.23-20.62-20.79-25.79-29.3-14.33-66.33-25.77-97.16-37.67-.37-.14-1.01-1.31-1.5-1.5l1.03-1.49-33.74-12.78-.34,1.5-235.63-92.26c-7.88-4.81-4.92-14.35,3.73-15.02l253.65,99.38c.64.34,1.16-.3,1.54-.36l.75,1.5c-.67-.09-2.5-.43-2.25.74,5.85,1.68,11.24,4.58,16.87,6.8s14.47,6.19,19.93,5.99c25.73,11.63,56.8,19.34,81.64,32.17,19.71,10.18,26.93,21.87,28.06,44.06,2.73,53.26-1.44,109.54-.88,162.98-3.37,24.86-20.42,41.56-45.71,30.13l-396.38-161.74c-7.52-5.29-11.61-13.4-12.9-22.41l-.12-190.02c1.43-15.01,9.45-26.75,22.8-33.55l287.44-107.3Z"/>
      <path class="cls-25" d="M471.42,301.45c-4.81.24-15.47-5.26-19.53-8.26l240.6-91.05,5.02-4.37h.75c-.51.85-1.51,1.75.36,1.5,2.84-2.66,4.35-4.63,5.64-8.26,2.23-6.28,2.04-9.55-.75-15.78,15.72,12.19,12.97,31.2-4.01,40.7-9.09,5.09-23.24,9.32-33.36,13.21-53.85,20.72-108.08,40.96-162.23,60.87-6.73,2.47-26.94,11.17-32.5,11.45Z"/>
      <path class="cls-11" d="M417.34,537.37l-1.11,2.24c11.35,3.23,22.36,10.87,34.16,11.28-1.06.97-2.39,1.27-3.76,1.5-.38.06-.9.7-1.53.36-9.57-2.61-22.89-11.08-32.27-12.38l-.75-1.5c1.8-.31,3.46-1.18,5.26-1.5Z"/>
      <path class="cls-10" d="M412.83,540.37c9.37,1.3,22.7,9.77,32.27,12.38.64.34,1.16-.3,1.53-.36l.75,1.5c-5.46.21-14.09-3.68-19.93-5.99s-11.02-5.12-16.87-6.8c-.25-1.17,1.58-.83,2.25-.74Z"/>
      <path class="cls-27" d="M692.25,168.47c3.32,1.76,4.48,2.5,7.51,4.51,4.76,5.23,2.93,10.1,3.76,15.78-1.01,3.95-3.48,6.04-5.26,9.02h-.75c-.19-1.11.27-2.81,0-3.76,1.7,1.36,1.6.16,2.3-1.08,3.63-6.41,2.92-13.07-1.55-18.83l-6.01-5.63Z"/>
      <path class="cls-26" d="M436.11,315.73c-.69.11-1.67-.17-2.25,0-6.43-3.66-13.58-5.94-20.28-9.02-1.22-.56-2.81-1.3-3.76-2.25,10.79,3.52,16.42,5.62,26.29,11.27Z"/>
      <path class="cls-28" d="M451.89,293.19c4.06,3,14.72,8.5,19.53,8.26-1.08.9-2.75.45-2.25,2.25-6.24-2.72-13.58-5.42-19.53-8.26-.46-.22-1-1.15-1.5-1.5l3.76-.75Z"/>
      <path class="cls-4" d="M433.86,315.73c-1.07.3-3.48,1.11-4.51,1.5.56-.59,2.5-.85.73-1.86-2.8-1.6-8.2-2.95-11.41-4.22-.53-.21-.65-1.17-1.18-1.38-1.87-.72-4.16-1.35-6.17-1.57l2.25-1.5c6.7,3.07,13.85,5.36,20.28,9.02Z"/>
      <path class="cls-11" d="M449.63,295.44c5.95,2.84,13.29,5.55,19.53,8.26,1.18.51,2.18,1.14,3,1.5-4.83-.15-10.47-2.88-15.02-4.88-2.36-1.04-5.65-2.37-7.79-3.48-1.36-.71-2.05-1.7.28-1.4Z"/>
      <path class="cls-23" d="M703.51,175.23c2.79,6.22,2.98,9.5.75,15.78.38-.91-.7-1.93-.75-2.25-.83-5.68,1-10.55-3.76-15.78,1.11.74,2.41,1.21,3.76,2.25Z"/>
      <path class="cls-11" d="M421.84,559.91c.49.19,1.13,1.36,1.5,1.5l-6.76,2.25,3-1.51c-.19-1.11-1.38-1.45-2.25-1.87-5.89-2.81-21.02-9.28-26.87-10.71-1.77-.43-5.03.2-6.93.57.81-1.06,4.18-2.2,5.26-2.25,2.55-.12,28.28,10.18,33.05,12.02Z"/>
      <path class="cls-10" d="M388.79,547.14l.34-1.5,33.74,12.78-1.03,1.49c-4.77-1.84-30.5-12.14-33.05-12.02v-.75Z"/>
      <path class="cls-10" d="M704.26,191.01c-1.29,3.63-2.8,5.59-5.64,8.26-1.87.25-.87-.65-.36-1.5,1.78-2.98,4.25-5.07,5.26-9.02.05.33,1.13,1.35.75,2.25Z"/>
      <path class="cls-19" d="M383.53,550.14c1.89-.37,5.16-1.01,6.93-.57,5.86,1.44,20.98,7.91,26.87,10.71.88.42,2.06.76,2.25,1.87l-3,1.51-230.96,85.65c-14.19,2.21-20.47-15.82-7.94-22.96,55.9-20.49,111.43-42.08,167.35-62.51,11.08-4.05,27.59-11.59,38.49-13.71Z"/>
    </g>
    <g>
      <path class="cls-3" d="M326.16,846.38l3.34-.12c49.96,1.49,77.15,47.05,64.23,93.59-18.6,67.01-116.64,65.24-132.62-2.33-11.01-46.55,15.64-89.68,65.05-91.14ZM321.39,861.53c-59.78,5.29-61.18,104.87-.51,112.37,30.25,3.74,53.64-16.77,57.74-46.11,5.25-37.62-16.98-69.83-57.23-66.26Z"/>
      <path class="cls-3" d="M601.42,848.85v76.19c.84.2.83-.31,1.22-.73,1.85-2.03,3.69-4.13,5.5-6.19,20.09-22.84,39.93-46.2,59.58-69.27h19.93l-44.57,51.65,50.2,86.01h-20.37l-40.74-73.16-1.05.46-29.71,33.96v38.75h-16.9v-137.66h16.9Z"/>
      <path class="cls-3" d="M422.02,986.52l52.63-137.69,20.13.07,51.61,137.62h-17.98l-13.07-33.7-61.92-.1-12.98,33.8h-18.42ZM510.42,938.9l-26.22-72.73-26.22,72.73h52.44Z"/>
      <polygon class="cls-22" points="227.44 848.85 227.44 862.92 145.97 970.93 229.61 970.93 229.61 986.52 123.44 986.52 123.44 972.88 205.77 864 123.87 864 123.87 848.85 227.44 848.85"/>
      <polygon class="cls-3" points="584.09 1017.25 617.02 1065.3 617.02 1017.25 628.29 1017.25 628.29 1084.35 617.24 1084.35 583.66 1036.3 583.66 1084.35 572.39 1084.35 572.39 1017.25 584.09 1017.25"/>
      <path class="cls-3" d="M215.22,1016.08c26.93-2.6,44.16,19.68,37.14,45.33-9.03,32.95-58.67,31.81-66.23-1.37-4.82-21.12,6.59-41.79,29.09-43.96ZM216.51,1026.03c-26.81,3.01-25.33,46.89-.11,49.22,34.67,3.21,33.85-53.02.11-49.22Z"/>
      <path class="cls-3" d="M519.87,1016.08c24.41-2.28,41.25,15.72,38.17,39.86-2.55,19.95-19.83,32.06-39.55,29.22-39.24-5.65-38.52-65.35,1.38-69.08ZM521.16,1026.04c-26.28,2.83-25.72,44.84-2.01,48.94,35.64,6.16,36.67-52.66,2.01-48.94Z"/>
      <path class="cls-3" d="M337.95,1017.25v43.94c0,5.13,4.64,11.36,9.41,13.11,11.47,4.19,22.65-2.88,22.65-15.27v-41.78h11.27v46.1c0,11.46-11.39,20.29-21.93,21.81-18.51,2.67-32.03-6.75-33.12-25.69-.79-13.8.63-28.35.02-42.23h11.7Z"/>
      <path class="cls-3" d="M690.66,1021.18l-3.88,9.49c-6.81-3.03-14.26-5.16-21.83-4.28-5.81.68-12.01,6.11-8.43,12.23,5.14,8.78,28.51,4.98,35.24,18.9,5.91,12.21-1.95,24.36-14.49,27.06-11.83,2.55-24.18-.21-34.65-5.89-.6-.84,4.47-8.28,5.42-9.48,7.69,4.55,19.37,8.28,28.04,4.66,6.19-2.59,7.31-10.48,1.48-14.27-8.88-5.78-24.97-4.02-31.43-14.49-4.74-7.69-2.99-18.28,4.11-23.88,10.97-8.63,28.64-5.43,40.41-.04Z"/>
      <path class="cls-3" d="M171.51,1021.18l-3.88,9.49c-7.03-3.82-26.7-8.2-30.54,1.3-2.77,6.83,3.13,9.95,8.55,11.8,11.11,3.78,27.18,4.35,28.51,19.57,2.38,27.04-34.77,25.52-50.66,15.32-.51-.87,4.35-8.36,5.41-9.43,7.66,4.63,21.55,9.02,29.59,3.61,4.73-3.18,4.97-9.81.18-13.1-11.17-7.66-35.57-3.56-34.39-25.41s32.91-21.02,47.22-13.15Z"/>
      <polygon class="cls-22" points="451.48 1017.25 451.48 1027.21 428.73 1027.21 428.08 1027.86 428.08 1084.35 416.82 1084.35 416.82 1027.86 416.17 1027.21 393.41 1027.21 393.41 1017.25 451.48 1017.25"/>
      <polygon class="cls-3" points="279.44 1017.25 279.44 1073.96 314.76 1073.96 315.41 1074.61 315.41 1084.35 268.18 1084.35 268.18 1017.25 279.44 1017.25"/>
      <rect class="cls-3" x="463.62" y="1017.25" width="11.7" height="67.1"/>
    </g>
  </g>
  <g>
    <rect class="cls-8" x="2275.44" y="308.62" width="440.4" height="63.87" transform="translate(4019.52 2346.05) rotate(-135)"/>
    <rect class="cls-9" x="1859.64" y="239.18" width="375.2" height="63.87" transform="translate(138.72 1059.95) rotate(-30)"/>
    <rect class="cls-1" x="2248.14" y="767.47" width="495.02" height="63.87" transform="translate(165.69 1998.83) rotate(-45)"/>
    <rect class="cls-8" x="2330.03" y="612.56" width="320.89" height="63.87" transform="translate(5051.18 398.33) rotate(160)"/>
    <rect class="cls-1" x="2328.25" y="469.05" width="352.55" height="63.87" transform="translate(322.4 -826.4) rotate(20)"/>
    <rect class="cls-8" x="1875.21" y="824.94" width="352.55" height="63.87" transform="translate(703.29 -910.95) rotate(30)"/>
    <rect class="cls-7" x="1858.79" y="686.83" width="374.85" height="63.87"/>
    <rect class="cls-9" x="1870.96" y="539.37" width="352.55" height="63.87" transform="translate(645.32 -1026.26) rotate(33.14)"/>
    <rect class="cls-16" x="1860.25" y="532.74" width="387.16" height="63.87" transform="translate(31.72 1234.1) rotate(-33.69)"/>
    <rect class="cls-7" x="1857.76" y="385.04" width="374.85" height="63.87"/>
    <line class="cls-13" x1="1937.82" y1="684.88" x2="1929.83" y2="684.86"/>
    <line class="cls-13" x1="1944.65" y1="684.94" x2="1929.53" y2="684.86"/>
    <path class="cls-13" d="M1951.07,685l-21.24-.14,21.24.14Z"/>
    <line class="cls-13" x1="1938.31" y1="679.99" x2="1930.59" y2="684.86"/>
    <line class="cls-13" x1="1930.13" y1="685.89" x2="2047.24" y2="607.82"/>
    <line class="cls-13" x1="2272.2" y1="1106.68" x2="2271.49" y2="12.95"/>
    <line class="cls-13" x1="2628.67" y1="500.98" x2="2544.84" y2="474.78"/>
    <line class="cls-13" x1="1934.26" y1="453.63" x2="1929.65" y2="450.27"/>
    <circle class="cls-20" cx="1817.76" cy="725.32" r="112.83"/>
    <circle class="cls-20" cx="1817.76" cy="432.56" r="112.83"/>
    <circle class="cls-5" cx="2693.24" cy="563.67" r="112.83"/>
    <g>
      <path class="cls-12" d="M2384.26,145.37c0,62.32-50.52,112.83-112.83,112.83V32.54c62.31,0,112.83,50.52,112.83,112.83Z"/>
      <path class="cls-2" d="M2271.43,32.54v225.66c-62.31,0-112.83-50.51-112.83-112.83s50.52-112.83,112.83-112.83Z"/>
    </g>
    <g>
      <path class="cls-12" d="M2385.01,427.94c0,62.32-50.52,112.83-112.83,112.83v-225.66c62.31,0,112.83,50.52,112.83,112.83Z"/>
      <path class="cls-2" d="M2272.18,315.11v225.66c-62.31,0-112.83-50.51-112.83-112.83s50.52-112.83,112.83-112.83Z"/>
    </g>
    <g>
      <path class="cls-12" d="M2385.01,717.47c0,62.32-50.52,112.83-112.83,112.83v-225.66c62.31,0,112.83,50.52,112.83,112.83Z"/>
      <path class="cls-2" d="M2272.18,604.64v225.66c-62.31,0-112.83-50.51-112.83-112.83s50.52-112.83,112.83-112.83Z"/>
    </g>
    <g>
      <path class="cls-12" d="M2385.01,984.29c0,62.32-50.52,112.83-112.83,112.83v-225.66c62.31,0,112.83,50.52,112.83,112.83Z"/>
      <path class="cls-2" d="M2272.18,871.46v225.66c-62.31,0-112.83-50.51-112.83-112.83s50.52-112.83,112.83-112.83Z"/>
    </g>
  </g>
</svg>